<svg version="1.1" xmlns="http://www.w3.org/2000/svg" xmlns:xlink="http://www.w3.org/1999/xlink" width="512.000000pt" height="512.000000pt" viewBox="0,0,256,256"><g fill="#636363" fill-rule="nonzero" stroke="none" stroke-width="1" stroke-linecap="butt" stroke-linejoin="miter" stroke-miterlimit="10" stroke-dasharray="" stroke-dashoffset="0" font-family="none" font-weight="none" font-size="none" text-anchor="none" style="mix-blend-mode: normal"><g transform="translate(0.025,-0.02936) scale(0.5,0.5)"><g transform="translate(0,512) scale(0.1,-0.1)"><path d="M693,5106c-102,-32 -176,-97 -222,-196l-26,-55v-1935v-1935l26,-56c37,-79 90,-133 167,-171l67,-33l1107,-3l1108,-2v-295c0,-331 2,-343 66,-391c31,-24 47,-29 93,-29c54,0 66,6 303,143c136,78 252,142 258,142c6,0 104,-53 218,-119c294,-168 307,-174 360,-168c48,5 84,27 116,71c21,27 21,39 24,603l2,576l63,67c104,114 183,264 228,436c20,75 23,113 23,244c-1,135 -4,168 -28,255c-35,133 -118,299 -200,401c-104,130 -256,242 -409,304l-72,29l-5,933l-5,933l-33,67c-38,77 -92,130 -171,167l-56,26l-1480,2c-1204,1 -1488,-1 -1522,-11zM3638,3920l2,-876l-107,-11c-586,-63 -1003,-597 -922,-1179c28,-203 142,-437 273,-563l36,-35v-108v-108l-1078,2l-1077,3l-3,1865c-1,1026 0,1871 3,1878c3,10 296,12 1437,10l1433,-3zM3855,2686c113,-36 198,-89 290,-181c91,-91 144,-175 182,-290c23,-71 26,-96 26,-215c0,-119 -3,-144 -26,-215c-38,-115 -91,-199 -182,-290c-91,-91 -175,-144 -290,-182c-117,-39 -313,-39 -430,0c-114,38 -198,90 -290,182c-91,91 -144,175 -182,290c-23,71 -26,96 -26,215c-1,118 3,145 25,212c39,119 92,204 182,294c110,110 236,177 381,204c88,16 250,4 340,-24zM3471,976c164,-28 342,-15 497,38l72,25v-300c0,-164 -2,-299 -4,-299c-2,0 -80,44 -173,97c-228,132 -218,132 -446,0c-93,-53 -171,-97 -173,-97c-2,0 -4,135 -4,299v300l69,-24c38,-13 111,-30 162,-39z"></path><path d="M1335,4306c-67,-29 -105,-106 -90,-183c9,-47 71,-110 117,-118c18,-3 353,-5 745,-3c701,3 712,3 739,24c53,39 69,71 69,134c0,63 -16,95 -69,134c-27,21 -38,21 -754,23c-589,2 -733,0 -757,-11z"></path><path d="M1335,3666c-67,-29 -105,-106 -90,-183c9,-47 71,-110 117,-118c18,-3 353,-5 745,-3c701,3 712,3 739,24c53,39 69,71 69,134c0,63 -16,95 -69,134c-27,21 -38,21 -754,23c-589,2 -733,0 -757,-11z"></path><path d="M1335,3026c-68,-29 -105,-106 -90,-183c9,-47 71,-110 117,-118c18,-3 227,-5 465,-3c418,3 432,4 459,24c53,39 69,71 69,134c0,63 -16,95 -69,134c-27,20 -40,21 -474,23c-356,2 -453,0 -477,-11z"></path><path d="M3815,2376c-41,-18 -60,-42 -190,-238l-109,-165l-70,46c-62,41 -75,46 -127,46c-62,0 -94,-17 -133,-69c-29,-38 -29,-133 -1,-173c12,-15 88,-73 170,-128c146,-98 150,-100 206,-100c42,0 65,6 86,20c15,12 109,142 208,289l180,268v58c0,63 -17,95 -67,133c-33,25 -113,32 -153,13z"></path></g></g></g></svg>